<?xml version="1.0" encoding="UTF-8"?>
<svg id="Layer_2" data-name="Layer 2" xmlns="http://www.w3.org/2000/svg" viewBox="0 0 2414.41 1292.75">
  <defs>
    <style>
      .cls-1 {
        fill: #dbdbdb;
      }

      .cls-2 {
        fill: #2ec4b6;
      }
    </style>
  </defs>
  <g id="Capa_1" data-name="Capa 1">
    <g>
      <g>
        <path class="cls-1" d="M184.67,1250.79c-26.03,0-49.37-12.54-69.97-37.6-11.94-15.26-17.89-30.53-17.89-45.79l.8-11.44c86.24-336.81,188.18-646.91,305.86-930.32-207.71,39.8-319.42,59.69-335.15,59.69-8.68,0-19.67-1.36-32.95-4.09-13.25-2.72-23.98-14.72-32.13-35.96-2.15-8.17-3.25-16.33-3.25-24.52,0-15.82,4.76-34.2,14.24-55.19,9.5-20.99,25.36-34.2,47.58-39.65,163.77-27.8,311.01-50.96,441.73-69.49,5.41-3.25,15.43-4.89,30.08-4.89C729.4,24.82,880.98,7.65,988.37,0c34.15,0,51.5,15.82,52.06,47.43,0,20.17-6.51,39.8-19.52,58.87-13.02,19.07-29.56,29.41-49.63,31.05-91.67,7.09-215.03,24.8-370.12,53.14-87.88,191.85-164.07,378.24-228.59,559.17-65.08,184.22-111.99,332.73-140.73,445.54-7.59,37.06-23.32,55.6-47.17,55.6ZM862.27,1254.07c-6.51,0-13.83-1.92-21.96-5.73-43.94-26.72-65.9-76.05-65.9-147.97,0-112.27,31.18-244.15,93.56-395.66l-8.15,8.17c-148.06,137.89-269.27,276.32-363.61,415.29-25.49,37.6-46.09,64.86-61.82,81.76-12.48,12.54-24.41,18.81-35.79,18.81-3.28,0-7.07-.56-11.4-1.64-21.16-9.83-31.72-34.63-31.72-74.41,0-9.8,2.15-32.82,6.51-69.06,4.33-36.24,21.01-97.14,50.01-182.71,29-85.57,62.77-173.32,101.3-263.24,123.65-300.84,204.43-451.27,242.4-451.27,22.24,0,40.66,10.9,55.32,32.71,7.59,10.36,11.4,23.73,11.4,40.06,0,15.26-5.17,33.79-15.47,55.57-78.63,192.95-142.07,353.98-190.34,483.14,153.47-178.75,270.33-268.13,350.6-268.13,49.89,0,82.96,20.45,99.25,61.31,2.69,8.19,4.05,17.71,4.05,28.62,0,23.44-7.61,52.6-22.78,87.47-104.12,218.01-156.18,361.35-156.18,430.03,0,22.88,2.97,39.78,8.96,50.68,2.69,5.99,4.05,11.98,4.05,17.97,0,20.17-8.4,34.61-25.21,43.33-4.89,3.28-10.58,4.91-17.09,4.91Z"/>
        <path class="cls-1" d="M1014.06,1251.61c-50.42,0-75.66-37.88-75.66-113.63,0-52.86,10.73-115.67,32.13-188.44,21.42-72.75,47.6-144.16,78.5-214.19s61.54-129.29,91.93-177.8c9.22-13.08,21.7-19.63,37.43-19.63,5.41,0,9.74.28,13.02.82l4.87,1.64c2.72.56,7.99,3.02,15.86,7.37,7.87,4.35,15.45,11.57,22.78,21.66s10.99,23.85,10.99,41.29c0,14.72-3.81,32.43-11.4,53.14-78.63,194.56-129.87,341.44-153.73,440.63-11.94,46.33-19.26,92.92-21.98,139.79-16.81,4.91-31.72,7.37-44.74,7.37Z"/>
        <path class="cls-1" d="M1621.65,1283.48h-4.07c-11.4,0-23.47-3.81-36.2-11.44-12.76-7.63-23.73-20.45-32.95-38.42-11.94-27.26-17.89-61.59-17.89-103s6.36-89.64,19.11-141.42c12.74-51.76,26.83-100.14,42.3-145.11,15.45-44.95,28.34-80.25,38.64-105.87l8.15-22.88c-11.94,7.09-54.39,47.15-127.33,120.18-72.94,73.03-157.39,174.39-253.37,304.1-28.75,39.78-48.55,65.68-59.39,77.66-14.63,15.82-29,23.73-43.12,23.73-27.11,0-40.66-18.27-40.66-54.78,0-28.9,6.79-65.42,20.32-109.55,13.58-44.13,28.21-88,43.94-131.62,30.36-82.83,71.02-180.92,122.01-294.29,18.98-41.96,30.92-67.3,35.79-76.02,9.22-15.26,22.24-22.91,39.05-22.91,4.87,0,8.94.56,12.2,1.64,3.25,1.1,5.02,1.64,5.3,1.64.26,0,2.97.97,8.12,2.87,5.15,1.92,11.25,5.6,18.32,11.03,17.89,13.62,26.85,34.07,26.85,61.31,0,16.36-3.53,33.79-10.58,52.32-12.48,33.79-21.7,59.69-27.67,77.66-5.97,17.99-9.09,27.8-9.35,29.44-.28,1.64-.95,4.63-2.03,8.99l4.07-5.71c68.87-81.2,127.16-142.52,174.89-183.94,58.57-51.22,110.07-76.84,154.55-76.84,35.25,0,63.44,14.18,84.6,42.52,11.38,16.36,17.09,36.78,17.09,61.31,0,21.81-6.79,50.4-20.34,85.83-9.76,21.27-20.06,45.53-30.9,72.77-18.98,43.05-38.23,88.44-57.75,136.12-19.52,47.69-36.07,92.92-49.63,135.69-13.58,42.77-20.34,78.33-20.34,106.69,0,16.89,2.15,30.79,6.51,41.7,3.25,8.71,4.89,17.43,4.89,26.16,0,11.42-3.94,21.38-11.81,29.82s-18.29,12.67-31.31,12.67Z"/>
        <path class="cls-1" d="M1810.98,1292.75h-7.33c-26.03-7.65-47.71-20.88-65.08-39.65-17.35-18.81-26.03-37.21-26.03-55.19,11.4-98.65,42.86-219.9,94.36-363.79,51.52-143.88,110.63-287.22,177.35-430.03,116.58-250.14,190.62-375.23,222.08-375.23,11.92,0,23.85,4.09,35.79,12.26,20.6,13.1,31.16,32.99,31.72,59.69,0,15.26-5.15,34.61-15.45,58.03-126.92,257.81-221.82,468.45-284.72,631.94,105.74-71.93,200.92-145.24,285.52-219.9,16.27-16.33,32-24.52,47.19-24.52,14.09,0,27.65,5.73,40.66,17.15,21.16,19.63,31.74,43.89,31.74,72.77,0,15.26-5.43,28.08-16.27,38.42-53.7,47.41-124.49,101.08-212.32,161.03-52.62,35.99-100.07,66.78-142.35,92.38,61.26,75.23,123.62,136.81,187.09,184.76,14.63,11.44,21.96,26.98,21.96,46.61,0,13.62-3.53,27.24-10.56,40.88-9.22,15.26-22.52,22.88-39.87,22.88-21.7,0-73.76-38.16-156.18-114.45-32.54-29.97-67.79-66.5-105.76-109.55-28.21,97.01-45.83,168.94-52.86,215.83-3.28,51.76-16.83,77.66-40.68,77.66Z"/>
        <path class="cls-2" d="M2332.24,1229.55c-19.52,0-36.35-7.24-50.45-21.66-14.09-14.46-21.14-31.5-21.14-51.11,0-17.99,7.05-34.61,21.16-49.86v-.82c17.35-27.24,39.05-40.88,65.08-40.88,16.25,0,30.9,5.73,43.92,17.17,8.15,7.63,14.11,16.89,17.91,27.8,3.79,10.88,5.69,21.79,5.69,32.69,0,22.35-8.15,42.39-24.41,60.1-16.27,17.71-35.51,26.57-57.75,26.57Z"/>
      </g>
      <path class="cls-2" d="M1259.56,493.58c-8.68,0-16.83-4.35-24.41-13.08-15.19-21.25-22.78-42.49-22.78-63.76,0-13.06,2.97-26.14,8.94-39.22,5.97-13.08,14.5-22.48,25.62-28.21,11.12-5.73,22.91-8.6,35.4-8.6,18.96,0,34.69,4.78,47.17,14.31,12.46,9.55,19.24,23.04,20.34,40.47,0,14.18-3.94,25.62-11.81,34.33-7.87,8.73-17.09,16.64-27.65,23.7-10.58,7.09-18.57,15-24.01,23.7-7.05,10.9-15.99,16.36-26.83,16.36Z"/>
    </g>
  </g>
</svg>